<?xml version="1.0" encoding="utf-8"?>
<!-- Generator: Adobe Illustrator 19.0.0, SVG Export Plug-In . SVG Version: 6.00 Build 0)  -->
<svg version="1.1" id="Shape_52_1_" xmlns="http://www.w3.org/2000/svg" xmlns:xlink="http://www.w3.org/1999/xlink" x="0px"
	 y="0px" viewBox="0 0 94 69" style="enable-background:new 0 0 94 69;" xml:space="preserve">
<style type="text/css">
	.st0{fill:#20AA97;}
</style>
<g id="Shape_52">
	<g>
		<path class="st0" d="M76,21.4H21.5c-0.7,0-1.3,0.6-1.3,1.3v28.7c0,0.7,0.6,1.3,1.3,1.3H76c0.7,0,1.3-0.6,1.3-1.3V22.6
			C77.3,21.9,76.7,21.4,76,21.4z M22.7,23.9h4.4c-0.5,2.2-2.2,3.8-4.4,4.2V23.9z M22.7,50.1v-4c2.2,0.4,3.9,2,4.4,4H22.7z
			 M74.7,50.1H70c0.5-2.2,2.4-3.8,4.7-4.1V50.1z M74.7,43.5c-3.7,0.3-6.8,3-7.3,6.6H29.7c-0.6-3.5-3.4-6.2-7-6.6V30.6
			c3.6-0.4,6.5-3.2,7-6.7h37.6c0.5,3.6,3.6,6.5,7.4,6.8V43.5z M74.7,28.1c-2.4-0.3-4.3-2-4.8-4.3h4.8V28.1z M49.4,25.4
			c-6.6,0-11.9,5.2-11.9,11.7c0,6.4,5.3,11.7,11.9,11.7c6.6,0,11.9-5.2,11.9-11.7C61.3,30.6,56,25.4,49.4,25.4z M49.4,46.2
			c-5.2,0-9.3-4.1-9.3-9.2c0-5.1,4.2-9.2,9.3-9.2c5.2,0,9.3,4.1,9.3,9.2C58.8,42.1,54.6,46.2,49.4,46.2z M48.3,35.4
			c0-0.3,0.3-0.6,0.9-0.6c0.6,0,1.2,0.1,1.7,0.4c0.4,0.2,0.9,0.1,1.2-0.2c0.3-0.4,0.2-1.1-0.3-1.4c-0.5-0.2-1-0.4-1.6-0.5V32h-1.4
			v1.1c-1.7,0.2-2.7,1.3-2.7,2.5c0,3.1,4.6,2.2,4.6,3.3c0,0.4-0.4,0.7-1.2,0.7c-0.7,0-1.4-0.2-1.9-0.5c-0.4-0.3-1-0.1-1.2,0.3l0,0
			c-0.3,0.4-0.2,1.1,0.3,1.3c0.6,0.3,1.3,0.5,2.1,0.6v1.1h1.4v-1.1c1.8-0.2,2.7-1.2,2.7-2.6C52.9,35.6,48.3,36.4,48.3,35.4z
			 M25.4,19.9h46.1c0.7,0,1.3-0.6,1.3-1.3c0-0.7-0.6-1.3-1.3-1.3H25.4c-0.7,0-1.3,0.6-1.3,1.3C24.1,19.3,24.7,19.9,25.4,19.9z
			 M31.3,16.2h34.4c0.7,0,1.3-0.6,1.3-1.3c0-0.7-0.6-1.3-1.3-1.3H31.3c-0.7,0-1.3,0.6-1.3,1.3C30,15.7,30.6,16.2,31.3,16.2z
			 M72.9,3.9l2.9-1.6c0.6-0.3,0.8-1.1,0.5-1.7c-0.3-0.6-1.1-0.8-1.7-0.5l-5.8,3.1c-0.3,0.2-0.5,0.4-0.6,0.7c-0.1,0.3-0.1,0.7,0.1,1
			l3.2,5.7c0.2,0.4,0.7,0.6,1.1,0.6c0.2,0,0.4,0,0.6-0.2c0.6-0.3,0.8-1.1,0.5-1.7L72,6.3c10.9,2.9,18.7,12.2,19.5,23.3
			c0,0.7,0.6,1.2,1.3,1.2c0,0,0.1,0,0.1,0c0.7,0,1.2-0.6,1.2-1.3C93.2,17.3,84.7,7.2,72.9,3.9z M22.5,58.3c-0.3-0.6-1.1-0.8-1.7-0.5
			c-0.6,0.3-0.8,1.1-0.5,1.7l1.8,3.2C11.2,59.8,3.3,50.6,2.6,39.4c0-0.7-0.6-1.2-1.4-1.2c-0.7,0-1.2,0.6-1.2,1.3
			c0.8,12.1,9.3,22.2,21.1,25.5l-2.9,1.6c-0.6,0.3-0.8,1.1-0.5,1.7c0.2,0.4,0.7,0.6,1.1,0.6c0.2,0,0.4-0.1,0.6-0.2l5.8-3.1
			c0.3-0.2,0.5-0.4,0.6-0.7c0.1-0.3,0.1-0.7-0.1-1L22.5,58.3z"/>
	</g>
</g>
</svg>
