<?xml version="1.0" encoding="utf-8"?>
<!-- Generator: Adobe Illustrator 19.0.0, SVG Export Plug-In . SVG Version: 6.00 Build 0)  -->
<svg version="1.1" id="Shape_51_1_" xmlns="http://www.w3.org/2000/svg" xmlns:xlink="http://www.w3.org/1999/xlink" x="0px"
	 y="0px" viewBox="0 0 66 69" style="enable-background:new 0 0 66 69;" xml:space="preserve">
<style type="text/css">
	.st0{fill:#20AA97;}
</style>
<g id="Shape_51">
	<g>
		<path class="st0" d="M42.5,49.3c0.5,1.1,1.2,2,2.3,3.1C46,53.5,47.4,54,49,54h0.2c1.5,0,3-0.6,4.1-1.6c1.1-1,1.9-2.1,2.3-3.1
			c1-2.2,1.6-4.4,1.6-6.6l0-1c-0.2-2.8-1.9-5-4.7-6C51.5,35.3,50.3,35,49,35c-1.3,0-2.4,0.2-3.5,0.7c-2.8,1.1-4.4,3.2-4.7,6.1l0,0.9
			C40.9,45,41.5,47.2,42.5,49.3C42.5,49.3,42.5,49.3,42.5,49.3z M46.4,38c0.9-0.3,1.7-0.5,2.6-0.5c0.9,0,1.8,0.2,2.7,0.5
			c1.9,0.7,2.9,2.1,3.1,3.8v0.9c0,1.8-0.4,3.6-1.4,5.6c-0.3,0.8-0.8,1.5-1.7,2.3c-0.3,0.3-0.7,0.5-1.2,0.7c-0.1-0.5-0.6-0.9-1.2-0.9
			h0c-0.6,0-1.1,0.5-1.2,1.1c-0.6-0.1-1.1-0.4-1.6-0.8c-0.8-0.8-1.4-1.6-1.8-2.4c-0.9-1.8-1.3-3.7-1.4-5.5l0-0.8
			C43.4,40,44.4,38.8,46.4,38z M63,56.8c-0.6-0.5-1.3-0.8-2.1-1.1L56.2,54c-1.6-0.6-3-0.5-4.1,0.4c0,0-0.1,0.1-0.1,0.1l-0.2,0.2
			c-0.4,0.4-0.6,0.7-0.7,0.9c-0.1,0.1-0.1,0.1-0.2,0.2l-1.7,2.4c-0.3-0.3-0.5-0.7-0.7-1.1c-0.5-0.7-0.9-1.3-1.4-2
			c-0.1-0.1-0.1-0.3-0.3-0.4c-0.4-0.4-0.9-0.9-1.7-1.1l-0.4-0.1c-0.2,0-0.3,0-0.5,0l-1.5,0.2c-0.1,0-0.2,0-0.3,0.1l-4.7,1.8
			c-0.8,0.2-1.6,0.7-2.3,1.2c-1.9,1.5-2.1,3.4-2,3.9v3.8c0,0.1,0,0.2,0,0.2c0.1,0.5,0.2,0.9,0.3,1.3c0,0.1,0,0.1,0.1,0.2
			c0.8,2,2.6,2.7,4,2.7h23.1c1.4,0,3.2-0.8,3.9-2.6c0.3-0.6,0.4-1.2,0.4-1.9V61C65.2,60,64.8,58.2,63,56.8z M62.5,60.8v3.6
			c0,0.4-0.1,0.6-0.2,0.9c-0.5,1.2-1.6,1.2-1.7,1.2H37.6c-0.4,0-1.2-0.1-1.6-1.1c-0.1-0.3-0.2-0.6-0.2-1l0-3.7
			c0-0.2,0.1-1.1,1.1-1.9c0.4-0.3,0.9-0.6,1.5-0.8l4.7-1.8l1.1-0.1l0.2,0.1c0.1,0,0.2,0.1,0.4,0.3c0,0.1,0.1,0.2,0.2,0.3
			c0.5,0.6,0.9,1.2,1.3,1.9c0.5,0.7,0.9,1.3,1.5,2l0.4,0.5c0.2,0.3,0.6,0.5,1,0.5c0.4,0,0.7-0.2,1-0.5l2.6-3.6
			c0.1-0.1,0.2-0.2,0.3-0.3c0.1-0.1,0.1-0.2,0.2-0.2c0-0.1,0.2-0.3,0.3-0.5l0.1-0.1c0.2-0.1,0.7-0.4,1.7,0l4.8,1.8
			c0.5,0.1,1,0.4,1.3,0.7c0,0,0,0,0,0c1,0.7,1.1,1.5,1.1,1.7C62.5,60.6,62.5,60.7,62.5,60.8z M45,7.8l3-1.6c0.6-0.3,0.8-1.1,0.5-1.7
			c-0.3-0.6-1.1-0.8-1.7-0.5L41,7.1c-0.3,0.2-0.5,0.4-0.6,0.7c-0.1,0.3-0.1,0.7,0.1,0.9l3.2,5.8c0.2,0.4,0.7,0.6,1.1,0.6
			c0.2,0,0.4,0,0.6-0.2c0.6-0.3,0.8-1.1,0.5-1.7L44,10.1C55,13,62.8,22.5,63.5,33.9c0,0.7,0.6,1.2,1.2,1.2c0,0,0.1,0,0.1,0
			c0.7,0,1.2-0.6,1.2-1.3C65.2,21.4,56.8,11.1,45,7.8z M22.8,58.5c-0.3-0.6-1.1-0.8-1.7-0.5c-0.6,0.3-0.8,1.1-0.5,1.7l1.4,2.5
			C11,59.2,3.2,49.8,2.5,38.4c0-0.7-0.6-1.2-1.3-1.2c-0.7,0-1.2,0.6-1.2,1.3c0.8,12.4,9.3,22.7,21,26l-2.2,1.2
			c-0.6,0.3-0.8,1.1-0.5,1.7c0.2,0.4,0.7,0.6,1.1,0.6c0.2,0,0.4,0,0.6-0.2l4.9-2.7c0.6-0.3,0.8-1.1,0.5-1.7L22.8,58.5z M1.7,14.7h3
			v12.4H4c-0.7,0-1.2,0.6-1.2,1.2c0,0.7,0.6,1.2,1.2,1.2h29.7c0.7,0,1.2-0.6,1.2-1.2c0-0.7-0.6-1.2-1.2-1.2H33V14.7h3.4
			c0.5,0,1-0.4,1.2-0.9c0.2-0.5,0-1.1-0.5-1.4L19.7,0.2c-0.4-0.3-1-0.3-1.4,0L1,12.4c-0.4,0.3-0.6,0.9-0.5,1.4
			C0.6,14.3,1.1,14.7,1.7,14.7z M11.3,27.1H7.1V14.7h4.1V27.1z M17.9,27.1h-4.1V14.7h4.1V27.1z M24.2,27.1h-3.8V14.7h3.8V27.1z
			 M30.5,27.1h-3.8V14.7h3.8V27.1z M19,2.8l13.4,9.4H5.6L19,2.8z M36.4,30.8H1.9c-0.7,0-1.2,0.6-1.2,1.2c0,0.7,0.6,1.2,1.2,1.2h34.5
			c0.7,0,1.2-0.6,1.2-1.2C37.6,31.3,37.1,30.8,36.4,30.8z"/>
	</g>
</g>
</svg>
