<?xml version="1.0" encoding="utf-8"?>
<!-- Generator: Adobe Illustrator 19.0.0, SVG Export Plug-In . SVG Version: 6.00 Build 0)  -->
<svg version="1.1" id="Shape_60_1_" xmlns="http://www.w3.org/2000/svg" xmlns:xlink="http://www.w3.org/1999/xlink" x="0px"
	 y="0px" viewBox="0 0 42 43" style="enable-background:new 0 0 42 43;" xml:space="preserve">
<style type="text/css">
	.st0{fill:#20AA97;}
</style>
<g id="Shape_60">
	<g>
		<path class="st0" d="M40.9,34.8l-6.2-6.3c-0.9-0.9-2.2-0.9-3.1,0l-1.3,1.3L27.6,27c2.5-2.9,4.1-6.6,4.1-10.8
			C31.7,7.3,24.6,0,15.8,0C7.1,0,0,7.3,0,16.2c0,8.9,7.1,16.2,15.8,16.2c4.1,0,7.9-1.6,10.7-4.3l2.7,2.8l-1.4,1.5
			c-0.4,0.4-0.6,1-0.6,1.6c0,0.6,0.2,1.2,0.6,1.6l5.3,5.5c0,0,0,0,0,0s0,0,0,0l0.9,0.9c0.7,0.7,1.6,1.1,2.6,1.1c1,0,1.9-0.4,2.6-1.1
			l1.8-1.8C42.3,38.6,42.3,36.3,40.9,34.8z M15.8,30.8C8,30.8,1.6,24.3,1.6,16.2C1.6,8.2,8,1.6,15.8,1.6c7.9,0,14.3,6.6,14.3,14.6
			C30.1,24.3,23.7,30.8,15.8,30.8z M33.7,39.3l-4.8-4.9c-0.1-0.1-0.2-0.3-0.2-0.4c0-0.2,0.1-0.3,0.2-0.4l3.8-3.9
			c0.1-0.1,0.3-0.2,0.4-0.2c0.2,0,0.3,0.1,0.4,0.2l4.8,4.9c0,0-0.1,0-0.1,0.1L33.7,39.3z M39.8,38.9L38,40.8c-0.8,0.8-2.1,0.8-2.9,0
			l-0.3-0.3l4.6-4.7c0,0,0.1-0.1,0.1-0.1l0.3,0.3C40.6,36.8,40.6,38.1,39.8,38.9z M13.1,5c-2.7,1.1-5,3-6.7,5.6
			c-0.2,0.4-0.2,0.9,0.2,1.1c0.1,0.1,0.3,0.1,0.4,0.1c0.3,0,0.5-0.1,0.6-0.4c1.5-2.3,3.6-4,6-5c0.4-0.2,0.6-0.6,0.4-1
			C14,5.1,13.5,4.9,13.1,5z"/>
	</g>
</g>
</svg>
