<?xml version="1.0" encoding="utf-8"?>
<!-- Generator: Adobe Illustrator 19.0.0, SVG Export Plug-In . SVG Version: 6.00 Build 0)  -->
<svg version="1.1" id="Shape_50_1_" xmlns="http://www.w3.org/2000/svg" xmlns:xlink="http://www.w3.org/1999/xlink" x="0px"
	 y="0px" viewBox="0 0 70 69" style="enable-background:new 0 0 70 69;" xml:space="preserve">
<style type="text/css">
	.st0{fill:#20AA97;}
</style>
<g id="Shape_50">
	<g>
		<path class="st0" d="M68.7,66.5H56.5v-4c0-0.7-0.6-1.3-1.3-1.3c-0.7,0-1.3,0.6-1.3,1.3v4H38.5v-4c0-0.7-0.6-1.3-1.3-1.3
			c-0.7,0-1.3,0.6-1.3,1.3v4H20.5v-4c0-0.7-0.6-1.3-1.3-1.3c-0.7,0-1.3,0.6-1.3,1.3v4H3.5L9,52.6l4.1,4.2c0.3,0.3,0.7,0.4,1.1,0.4
			c0.4-0.1,0.8-0.3,0.9-0.7l5.9-11.1l5.5,4.5c0.3,0.2,0.6,0.3,0.9,0.3c0.3,0,0.6-0.2,0.9-0.5l4.5-5.4C36.6,46.6,41,48,45.8,48
			c13.1,0,23.8-10.6,23.8-23.5C69.5,11.5,58.9,1,45.8,1S22,11.5,22,24.5c0,7.4,3.4,13.9,8.8,18.3L27.2,47l-5.7-4.6
			c-0.3-0.2-0.7-0.3-1.1-0.3c-0.4,0.1-0.7,0.3-0.9,0.6l-5.8,11l-4.3-4.4c-0.3-0.3-0.7-0.4-1.2-0.4c-0.4,0.1-0.8,0.4-0.9,0.8
			L2.6,61.9V1.3C2.6,0.6,2,0,1.3,0C0.6,0,0,0.6,0,1.3v66.5C0,68.4,0.6,69,1.3,69h67.5c0.7,0,1.3-0.6,1.3-1.3
			C70,67,69.4,66.5,68.7,66.5z M24.5,24.5c0-11.6,9.5-21,21.2-21c11.7,0,21.2,9.4,21.2,21c0,11.6-9.5,21-21.2,21
			C34,45.5,24.5,36.1,24.5,24.5z M55.5,12.5c-0.5-0.4-1.3-0.3-1.8,0.2L36.3,34.3c-0.4,0.5-0.4,1.3,0.2,1.8c0.2,0.2,0.5,0.3,0.8,0.3
			c0.4,0,0.7-0.2,1-0.5l17.5-21.6C56.2,13.7,56.1,12.9,55.5,12.5z M45,18.1c0-3.1-2.6-5.7-5.8-5.7c-3.2,0-5.8,2.6-5.8,5.7
			c0,3.1,2.6,5.7,5.8,5.7C42.4,23.8,45,21.2,45,18.1z M36,18.1c0-1.8,1.4-3.2,3.2-3.2s3.2,1.4,3.2,3.2c0,1.8-1.4,3.2-3.2,3.2
			S36,19.8,36,18.1z M46.5,30.9c0,3.1,2.6,5.7,5.8,5.7c3.2,0,5.8-2.6,5.8-5.7s-2.6-5.7-5.8-5.7C49.1,25.2,46.5,27.7,46.5,30.9z
			 M55.5,30.9c0,1.8-1.4,3.2-3.2,3.2S49,32.7,49,30.9c0-1.8,1.4-3.2,3.2-3.2S55.5,29.1,55.5,30.9z"/>
	</g>
</g>
</svg>
