<?xml version="1.0" encoding="utf-8"?>
<!-- Generator: Adobe Illustrator 19.0.0, SVG Export Plug-In . SVG Version: 6.00 Build 0)  -->
<svg version="1.1" id="Shape_64_1_" xmlns="http://www.w3.org/2000/svg" xmlns:xlink="http://www.w3.org/1999/xlink" x="0px"
	 y="0px" viewBox="0 0 42 56" style="enable-background:new 0 0 42 56;" xml:space="preserve">
<style type="text/css">
	.st0{fill:#20AA97;}
</style>
<g id="Shape_64">
	<g>
		<path class="st0" d="M41.2,22.1l-0.7-1c-0.1-0.1-0.1-0.3,0-0.4l0.7-1c0.7-1,1-2.3,0.7-3.5c-0.3-1.2-1.1-2.2-2.2-2.8l-1.1-0.6
			c-0.1-0.1-0.2-0.2-0.2-0.4l0.2-1.2c0.2-1.2-0.1-2.5-0.9-3.5c-0.8-1-2-1.6-3.2-1.6l-1.2,0c-0.1,0-0.3-0.1-0.3-0.3l-0.4-1.1
			c-0.5-1.8-2.3-3.1-4.2-3.1c-0.6,0-1.2,0.1-1.7,0.4l-1.1,0.5c-0.1,0.1-0.3,0-0.4-0.1l-0.8-0.9c-0.8-0.9-2-1.4-3.3-1.4
			c-1.3,0-2.5,0.5-3.3,1.5l-0.8,0.9c-0.1,0.1-0.3,0.1-0.4,0.1L15.2,2c-0.5-0.2-1.1-0.3-1.7-0.3c-2,0-3.7,1.3-4.3,3.2L8.9,6.1
			c0,0.1-0.2,0.2-0.3,0.2L7.4,6.4C6.1,6.5,5,7.1,4.2,8.1c-0.8,1-1.1,2.2-0.9,3.5l0.2,1.2c0,0.1,0,0.3-0.2,0.4l-1.1,0.6
			c-1.1,0.6-1.9,1.7-2.2,2.9c-0.3,1.2,0,2.5,0.7,3.5l0.7,1c0.1,0.1,0.1,0.3,0,0.4l-0.7,1c-0.7,1-1,2.3-0.7,3.5
			c0.3,1.2,1.1,2.2,2.2,2.8l1.1,0.6c0.1,0.1,0.2,0.2,0.2,0.4l-0.2,1.2c-0.2,1.2,0.1,2.5,0.9,3.5c0.8,1,2,1.6,3.2,1.6l1.2,0
			c0.1,0,0.3,0.1,0.3,0.2l0.3,1.2c0.4,1.3,1.3,2.3,2.5,2.8V55c0,0.3,0.2,0.6,0.4,0.8c0.3,0.2,0.6,0.2,0.9,0.1l8.1-2.8l8.1,2.8
			c0.1,0,0.2,0.1,0.3,0.1c0.2,0,0.4-0.1,0.6-0.2c0.3-0.2,0.4-0.5,0.4-0.8V40c0-0.1,0-0.1,0-0.2c0.9-0.6,1.6-1.4,1.9-2.5l0.3-1.2
			c0-0.1,0.2-0.2,0.3-0.2l1.2-0.1c1.3-0.1,2.4-0.7,3.2-1.7c0.8-1,1.1-2.2,0.9-3.5l-0.2-1.2c0-0.1,0-0.3,0.2-0.4l1.1-0.6
			c1.1-0.6,1.9-1.7,2.2-2.9C42.2,24.4,41.9,23.1,41.2,22.1z M28.9,53.6l-7.1-2.4c-0.2-0.1-0.5-0.1-0.7,0l-7.1,2.4V40.5
			c0.5,0,1-0.1,1.4-0.3l1.1-0.5c0.1-0.1,0.3,0,0.4,0.1l0.8,0.9c0.8,0.9,2,1.4,3.3,1.4c1.3,0,2.5-0.5,3.3-1.5l0.8-0.9
			c0.1-0.1,0.3-0.1,0.4-0.1l1.2,0.5c0.5,0.2,1.1,0.3,1.7,0.3c0.1,0,0.2,0,0.4,0V53.6z M39.9,25.2c-0.1,0.7-0.6,1.2-1.2,1.6l-1.1,0.6
			c-0.9,0.5-1.4,1.5-1.2,2.5l0.2,1.2c0.1,0.7,0,1.3-0.5,1.9c-0.4,0.5-1.1,0.9-1.7,0.9l-1.2,0.1c-1,0.1-1.9,0.7-2.2,1.7l-0.3,1.2
			c-0.4,1.3-1.8,2.1-3.2,1.6l-1.1-0.5c-0.9-0.4-2-0.1-2.7,0.6l-0.8,0.9c-0.9,1-2.7,1-3.6,0l-0.8-0.9c-0.5-0.5-1.1-0.8-1.8-0.8
			c-0.3,0-0.6,0.1-0.9,0.2l-1.1,0.5c-0.3,0.1-0.6,0.2-0.9,0.2c-1.1,0-2-0.7-2.3-1.7l-0.3-1.2c-0.3-1-1.1-1.6-2.2-1.7l-1.2,0
			c-0.7,0-1.3-0.3-1.8-0.9c-0.4-0.5-0.6-1.2-0.5-1.9L5.7,30c0.2-1-0.3-2-1.2-2.4L3.4,27c-0.6-0.3-1-0.9-1.2-1.5
			c-0.2-0.7,0-1.3,0.4-1.9l0.7-1c0.6-0.8,0.6-1.9,0-2.7l-0.7-1c-0.4-0.5-0.6-1.2-0.4-1.9c0.1-0.7,0.6-1.2,1.2-1.6l1.1-0.6
			c0.9-0.5,1.4-1.5,1.2-2.5l-0.2-1.2c-0.1-0.7,0-1.3,0.5-1.9c0.4-0.5,1.1-0.9,1.7-0.9l1.2-0.1c1-0.1,1.9-0.7,2.2-1.7l0.3-1.2
			c0.4-1.3,1.8-2.1,3.2-1.6l1.1,0.5c0.9,0.4,2,0.1,2.7-0.6l0.8-0.9c0.9-1,2.7-1,3.6,0l0.8,0.9c0.7,0.7,1.8,1,2.7,0.6l1.1-0.5
			c0.3-0.1,0.6-0.2,0.9-0.2c1.1,0,2,0.7,2.3,1.7l0.4,1.1c0.3,1,1.1,1.6,2.2,1.7l1.2,0c0.7,0,1.3,0.3,1.8,0.9
			c0.4,0.5,0.6,1.2,0.5,1.9l-0.2,1.2c-0.2,1,0.3,2,1.2,2.4l1.1,0.6c0.6,0.3,1,0.9,1.2,1.5c0.2,0.7,0,1.3-0.4,1.9l-0.7,1
			c-0.6,0.8-0.6,1.9,0,2.7l0.7,1c0,0,0,0,0,0C39.9,23.8,40.1,24.5,39.9,25.2z M21,7.6c-7.5,0-13.6,6-13.6,13.3
			c0,7.4,6.1,13.3,13.6,13.3c7.5,0,13.6-6,13.6-13.3C34.6,13.6,28.5,7.6,21,7.6z M21,32.3c-6.4,0-11.5-5.1-11.5-11.4
			c0-6.3,5.2-11.4,11.5-11.4c6.4,0,11.5,5.1,11.5,11.4C32.5,27.2,27.4,32.3,21,32.3z M24.7,17.9l-4.4,4.3l-2.2-1.9
			c-0.4-0.4-1.1-0.3-1.4,0.1c-0.4,0.4-0.3,1,0.1,1.4l2.9,2.5c0.2,0.2,0.4,0.3,0.7,0.3c0.3,0,0.5-0.1,0.7-0.3l5-5
			c0.4-0.4,0.4-1,0-1.4C25.7,17.5,25.1,17.5,24.7,17.9z"/>
	</g>
</g>
</svg>
