<?xml version="1.0" encoding="utf-8"?>
<!-- Generator: Adobe Illustrator 19.0.0, SVG Export Plug-In . SVG Version: 6.00 Build 0)  -->
<svg version="1.1" id="Shape_62_1_" xmlns="http://www.w3.org/2000/svg" xmlns:xlink="http://www.w3.org/1999/xlink" x="0px"
	 y="0px" viewBox="0 0 48 44" style="enable-background:new 0 0 48 44;" xml:space="preserve">
<style type="text/css">
	.st0{fill:#20AA97;}
</style>
<g id="Shape_62">
	<g>
		<path class="st0" d="M36.8,31.9c-2.4-1.6-4.4-2.9-6.3-4.1c-0.8-0.5-1.7-0.8-2.7-0.8c-1,0-2,0.4-2.9,1c0,0,0,0-0.1,0.1l0,0
			c-0.3,0.2-0.7,0.5-1.1,1c-0.2,0.3-0.5,0.6-0.8,1c-0.1,0.1-0.2,0.2-0.3,0.3c-2.9-2.2-5.5-4.6-8.1-7.6c-0.2-0.2-0.3-0.4-0.5-0.6
			c0.4-0.3,0.7-0.6,1-0.9c0.5-0.4,0.9-0.9,1.4-1.6c1-1.5,1.1-3.4,0.2-4.9c-0.4-0.6-0.7-1.1-1.1-1.5l-0.7-1c-1-1.3-1.9-2.7-2.9-4
			C11.2,7,9.8,6.3,8.3,6.3c-0.5,0-1.1,0.1-1.6,0.3C5.4,7,4.1,7.8,2.7,8.8c-2.4,1.8-2.7,4.6-2.7,5.5l0,0.1c-0.1,2.4,0.5,4.5,1.3,6.6
			c1,2.6,2.3,5,3.9,7.3c2.9,4,6.3,7.4,10.2,10.1c4.1,2.9,8.1,4.6,12.3,5.4c0.7,0.1,1.5,0.2,2.2,0.2H30c1.3,0,2.7-0.3,4-0.8l0.3-0.1
			c0.2-0.1,0.4-0.2,0.8-0.5c1.7-1.3,2.9-3.1,3.7-5.6C39.3,34.9,38.5,33,36.8,31.9z M37.2,36.5c-0.7,2.1-1.7,3.7-3.1,4.8
			c-0.3,0.2-0.5,0.3-0.5,0.3l-0.2,0.1c-1.1,0.5-2.3,0.7-3.4,0.7h-0.1c-0.6,0-1.3-0.1-1.9-0.2c-3.9-0.7-7.7-2.4-11.7-5.1
			c-3.7-2.5-7-5.8-9.8-9.7c-1.5-2.2-2.8-4.5-3.7-6.9c-0.7-2-1.3-3.9-1.2-5.9l0-0.1c0.1-0.8,0.2-3,2.1-4.4c1.2-0.9,2.3-1.6,3.5-2
			C7.5,8,7.9,7.9,8.3,7.9c1,0,1.9,0.4,2.4,1.2c1,1.3,1.9,2.7,2.9,4l0.7,1c0.3,0.5,0.7,0.9,1,1.5c0.6,0.9,0.5,2.2-0.1,3.2
			c-0.4,0.5-0.7,1-1.1,1.3c-0.5,0.5-1.1,0.9-1.6,1.3c-0.2,0.1-0.3,0.3-0.3,0.5c0,0.2,0,0.4,0.2,0.6c0.2,0.2,0.3,0.4,0.5,0.6
			c0.2,0.2,0.3,0.4,0.5,0.7c2.8,3.3,5.8,6,9,8.3c0.4,0.3,0.9,0.2,1.1-0.2l0.7-0.9c0.3-0.3,0.5-0.7,0.8-1c0.3-0.3,0.6-0.6,0.8-0.8
			c0,0,0.1,0,0.1-0.1l0,0c1-0.8,2.5-0.8,3.6-0.1c1.9,1.2,3.9,2.5,6.4,4.2c0,0,0,0,0,0C37.1,34,37.5,35.2,37.2,36.5z M46.7,7.2
			c-1.5-3.1-4.1-5.4-7.4-6.5c-4.3-1.5-9-0.6-12.5,2.2c-1.8,1.4-3.1,3.3-4,5.6c-0.9,2.7-0.9,5.4-0.1,8.1L22,17.1
			c-0.9,0.6-1.4,1.6-1.3,2.8c0.2,1.2,1,2.1,2.5,2.7c0,0,0.1,0,0.2,0c1.1,0.4,2,0.6,2.8,0.6h0.7c0.3,0,0.6,0,1,0c1.1,0.7,2,1.2,3,1.5
			c1.4,0.5,2.8,0.7,4.3,0.7c2.9,0,5.9-1,8.2-2.9c1.8-1.4,3.1-3.3,4-5.6C48.4,13.7,48.2,10.3,46.7,7.2z M45.8,16.3
			c-0.7,2-1.9,3.7-3.5,4.9c-2.1,1.6-4.6,2.5-7.2,2.5c-1.3,0-2.6-0.2-3.8-0.6c-0.9-0.3-1.8-0.7-2.8-1.5c-0.1-0.1-0.3-0.1-0.5-0.1
			c0,0-0.1,0-0.1,0c-0.3,0.1-0.6,0.1-1,0.1h-0.7c-0.7,0-1.4-0.1-2.4-0.5c0,0-0.1,0-0.1,0c-1.1-0.5-1.3-1-1.4-1.3
			c0-0.5,0.2-0.9,0.6-1.3l1.2-0.9c0.3-0.2,0.4-0.6,0.3-0.9c-0.9-2.5-0.9-5.1-0.1-7.6c0.7-2,1.9-3.7,3.5-4.9C31,1.7,35,0.9,38.8,2.2
			c2.9,1,5.2,3,6.4,5.7C46.5,10.6,46.7,13.5,45.8,16.3z M32.3,9.4H37c0.5,0,0.8-0.4,0.8-0.8c0-0.4-0.4-0.8-0.8-0.8h-4.7
			c-0.5,0-0.8,0.4-0.8,0.8C31.5,9,31.9,9.4,32.3,9.4z M40.7,11.7H30.6c-0.5,0-0.8,0.4-0.8,0.8c0,0.4,0.4,0.8,0.8,0.8h10.1
			c0.5,0,0.8-0.4,0.8-0.8C41.5,12.1,41.2,11.7,40.7,11.7z M39.4,15.9h-6c-0.5,0-0.8,0.4-0.8,0.8s0.4,0.8,0.8,0.8h6
			c0.5,0,0.8-0.4,0.8-0.8S39.9,15.9,39.4,15.9z"/>
	</g>
</g>
</svg>
