<?xml version="1.0" encoding="utf-8"?>
<!-- Generator: Adobe Illustrator 19.0.0, SVG Export Plug-In . SVG Version: 6.00 Build 0)  -->
<svg version="1.1" id="Shape_48_1_" xmlns="http://www.w3.org/2000/svg" xmlns:xlink="http://www.w3.org/1999/xlink" x="0px"
	 y="0px" viewBox="0 0 60 69" style="enable-background:new 0 0 60 69;" xml:space="preserve">
<style type="text/css">
	.st0{fill:#20AA97;}
</style>
<g id="Shape_48">
	<g>
		<path class="st0" d="M16.7,19.7H25c0.7,0,1.3-0.6,1.3-1.3c0-0.7-0.6-1.3-1.3-1.3h-8.3c-0.7,0-1.3,0.6-1.3,1.3
			C15.4,19.2,16,19.7,16.7,19.7z M10.5,26.3h21.1c0.7,0,1.3-0.6,1.3-1.3c0-0.7-0.6-1.3-1.3-1.3H10.5c-0.7,0-1.3,0.6-1.3,1.3
			C9.2,25.7,9.8,26.3,10.5,26.3z M13.7,31.7c-0.7,0-1.3,0.6-1.3,1.3c0,0.7,0.6,1.3,1.3,1.3h18.9c0.7,0,1.3-0.6,1.3-1.3
			c0-0.7-0.6-1.3-1.3-1.3H13.7z M23.1,40.2H9.5c-0.7,0-1.3,0.6-1.3,1.3c0,0.7,0.6,1.3,1.3,1.3h13.6c0.7,0,1.3-0.6,1.3-1.3
			C24.4,40.8,23.8,40.2,23.1,40.2z M57.1,47.4c1-1.5,0.8-3.4-0.5-4.6l-2.7-2.7c-1.1-1-2.6-1.3-3.8-0.9V15.9c0-0.7-0.3-1.5-0.8-2
			L35.8,0.8C35.3,0.3,34.6,0,33.9,0H2.8C2.1,0,1.4,0.3,0.9,0.8C0.3,1.4,0,2.1,0,2.7v60.1c0,1.5,1.3,2.7,2.8,2.7h30.5
			c0.1,0,0.1,0,0.2,0l0.1,0.1c1.2,1.2,3.3,1.4,4.6,0.5c0.3,1.7,1.9,2.9,3.6,2.9h3.8c1.8,0,3.3-1.3,3.6-2.9c1.4,0.9,3.4,0.7,4.6-0.5
			l2.7-2.7c1.3-1.3,1.5-3.3,0.5-4.5c1.7-0.3,2.9-1.8,2.9-3.6V51C60,49.2,58.7,47.7,57.1,47.4z M34.5,3l11.8,11.7H34.5V3z M2.8,63.1
			c-0.1,0-0.2-0.1-0.2-0.2l0-60.1c0-0.1,0.1-0.2,0.2-0.2h29.1V16c0,0.7,0.6,1.3,1.3,1.3h14.2v20c-0.5-0.3-1.2-0.5-1.8-0.5h-3.8
			c-1.8,0-3.3,1.3-3.6,2.9c-1.4-0.9-3.3-0.7-4.6,0.5l-2.7,2.7c-1.3,1.3-1.5,3.3-0.5,4.5c-1.7,0.3-2.9,1.8-2.9,3.6v3.8
			c0,1.8,1.3,3.3,2.9,3.6c-0.9,1.4-0.8,3.3,0.5,4.6l0.1,0.1H2.8z M57.4,54.8c0,0.6-0.4,1.1-1,1.1l-1.8,0.3c-0.4,0.1-0.8,0.4-1,0.8
			c-0.2,0.4-0.1,0.9,0.1,1.2l1.1,1.6c0.3,0.4,0.2,1-0.1,1.4L52,63.8c-0.4,0.4-1,0.5-1.6,0l-1.4-1c-0.4-0.3-0.8-0.3-1.2-0.1
			c-0.4,0.2-0.7,0.5-0.8,1l-0.3,1.9c-0.1,0.5-0.5,0.9-1.1,0.9h-3.8c-0.6,0-1.1-0.4-1.1-1l-0.3-1.7c-0.1-0.4-0.4-0.8-0.8-1
			c-0.2-0.1-0.3-0.1-0.5-0.1c-0.3,0-0.5,0.1-0.7,0.2l-1.5,1c0,0-0.1,0.1-0.1,0.1c-0.2,0.2-1,0.2-1.4-0.2l-2.7-2.7
			c-0.4-0.4-0.4-1.1-0.1-1.6l1-1.4c0.3-0.4,0.3-0.8,0.1-1.2c-0.2-0.4-0.5-0.7-1-0.8l-1.9-0.3c-0.5-0.1-0.9-0.5-0.9-1.1V51
			c0-0.6,0.4-1.1,1-1.1l1.8-0.3c0.4-0.1,0.8-0.4,1-0.8c0.2-0.4,0.1-0.9-0.1-1.2L32.5,46c-0.3-0.4-0.2-1,0.1-1.4l2.7-2.7
			c0.4-0.4,1.1-0.4,1.6-0.1l1.4,1c0.4,0.3,0.8,0.3,1.2,0.1c0.4-0.2,0.7-0.5,0.8-1l0.3-1.9c0.1-0.5,0.5-0.9,1.1-0.9h3.8
			c0.6,0,1.1,0.4,1.1,1l0.3,1.7c0.1,0.4,0.4,0.8,0.8,1c0.4,0.2,0.9,0.1,1.2-0.1l1.6-1.1c0.4-0.3,1-0.2,1.4,0.1l2.7,2.7c0,0,0,0,0,0
			c0.4,0.4,0.4,1,0,1.5l-1,1.4c-0.3,0.4-0.3,0.8-0.1,1.2c0.2,0.4,0.5,0.7,1,0.8l1.9,0.3c0.5,0.1,0.9,0.5,0.9,1.1V54.8z M44.3,45.6
			c-4.1,0-7.4,3.3-7.4,7.3c0,4,3.3,7.3,7.4,7.3c4.1,0,7.4-3.3,7.4-7.3C51.7,48.9,48.4,45.6,44.3,45.6z M44.3,57.7
			c-2.7,0-4.8-2.1-4.8-4.8c0-2.6,2.2-4.8,4.8-4.8c2.7,0,4.8,2.1,4.8,4.8C49.1,55.5,46.9,57.7,44.3,57.7z"/>
	</g>
</g>
</svg>
