<?xml version="1.0" encoding="utf-8"?>
<!-- Generator: Adobe Illustrator 19.0.0, SVG Export Plug-In . SVG Version: 6.00 Build 0)  -->
<svg version="1.1" id="Shape_63_1_" xmlns="http://www.w3.org/2000/svg" xmlns:xlink="http://www.w3.org/1999/xlink" x="0px"
	 y="0px" viewBox="0 0 45 52" style="enable-background:new 0 0 45 52;" xml:space="preserve">
<style type="text/css">
	.st0{fill:#3AB09F;}
</style>
<g id="Shape_63">
	<g>
		<path class="st0" d="M43.4,9.8c-0.1-1-1-1.8-2.1-1.8c-6.5,0-12.7-2.6-17.3-7.3C23.6,0.2,23.1,0,22.5,0C22,0,21.4,0.2,21,0.6
			C16.4,5.3,10.2,7.9,3.7,8c-1.1,0-2,0.8-2.1,1.8C-0.9,28,4.7,38.5,9.8,44.1c5.6,6.1,11.9,7.9,12.1,7.9c0.2,0.1,0.4,0,0.5,0
			c0.1,0,0.2,0.1,0.3,0.1c0.1,0,0.2,0,0.2,0c0.3-0.1,6.5-1.8,12.1-7.9C40.3,38.5,45.9,28,43.4,9.8z M33.8,42.8
			c-5.2,5.7-11.2,7.4-11.2,7.4c0,0,0,0-0.1,0c0,0,0,0-0.1,0c-0.1,0-6-1.7-11.2-7.4C6.4,37.5,1.1,27.5,3.4,10.1
			c0-0.1,0.1-0.2,0.3-0.2c7,0,13.7-2.8,18.6-7.9c0,0,0.1-0.1,0.2-0.1h0c0.1,0,0.1,0,0.2,0.1c5,5,11.6,7.8,18.6,7.9
			c0.1,0,0.2,0.1,0.3,0.2C43.9,27.5,38.6,37.5,33.8,42.8z M35.9,12.9c-4.6,0-8.9-1.8-12.1-5.1c-0.3-0.3-0.8-0.5-1.3-0.5
			c-0.5,0-0.9,0.2-1.3,0.5c-3.2,3.3-7.5,5.1-12.1,5.1c-0.9,0-1.6,0.7-1.8,1.5C7,16.9,6.9,19.2,7,21.3c0,0,0,0,0,0
			c0.2,8.9,3.4,14.5,6.3,17.7c4,4.4,8.5,5.7,8.7,5.7c0.2,0,0.3,0.1,0.5,0.1c0.2,0,0.3,0,0.5-0.1c0.2-0.1,4.7-1.3,8.7-5.7
			c3.7-4,7.7-11.5,5.9-24.5C37.5,13.6,36.8,12.9,35.9,12.9z M9.2,14.8c1.3,0,2.6-0.2,3.9-0.4l-4.2,4.5C8.9,17.6,9,16.2,9.2,14.8z
			 M21.6,42.6c-1.4-0.6-4.3-2-6.9-4.8C12.6,35.5,10.5,32,9.4,27h12.1V42.6z M21.6,25.1h-3.3l3.3-3.3V25.1z M21.6,19.2l-5.9,5.9
			c0,0,0,0,0,0h-4.1l10-10.1V19.2z M21.6,12.3L9.1,24.9c-0.1-1-0.2-2.1-0.3-3.3l7.6-8.1c0.1-0.1,0.1-0.2,0.2-0.3
			c1.8-0.8,3.4-1.8,4.9-3.2V12.3z M23.4,27h5.5l-5.5,5.5V27z M23.4,35.1l7.5-7.5c0.2-0.2,0.3-0.4,0.3-0.7h3.1L23.4,38.5V35.1z
			 M30.3,37.7c-2.6,2.8-5.5,4.2-6.9,4.8v-1.3l11.7-12.4C34,32.9,32.1,35.8,30.3,37.7z M35.9,25.1H23.4V10c3.4,3,7.8,4.7,12.4,4.8
			C36.3,18.8,36.3,22.2,35.9,25.1z"/>
	</g>
</g>
</svg>
