<?xml version="1.0" encoding="utf-8"?>
<!-- Generator: Adobe Illustrator 19.0.0, SVG Export Plug-In . SVG Version: 6.00 Build 0)  -->
<svg version="1.1" id="Shape_55_1_" xmlns="http://www.w3.org/2000/svg" xmlns:xlink="http://www.w3.org/1999/xlink" x="0px"
	 y="0px" viewBox="0 0 104 66" style="enable-background:new 0 0 104 66;" xml:space="preserve">
<style type="text/css">
	.st0{fill:#20AA97;}
</style>
<g id="Shape_55">
	<g>
		<path class="st0" d="M76.1,23.5c0-0.2,0-0.3,0-0.5V2.2c0-1.1-0.8-2-1.9-2.2c-1.1-0.2-2.1,0.4-2.5,1.4c0,0.1-2.4,5.7-15.5,13.2
			c-11.2,6.4-22.9,7.1-26.7,7.1c-0.9-1.6-2.6-2.6-4.5-2.6H9.4c-2.7,0-4.9,2.1-5,4.7H4.1c-2.3,0-4.1,1.8-4.1,4v7.8c0,2.2,1.8,4,4.1,4
			h0.3c0.1,2.6,2.3,4.7,5,4.7h2.3l2.4,18.6c0.3,1.7,1.8,2.9,3.5,2.9h5.2c1,0,2-0.5,2.7-1.2c0.7-0.8,1-1.8,0.8-2.8l-2.3-17.5h1
			c1.9,0,3.6-1,4.5-2.6c3.8,0,15.5,0.7,26.7,7.1c13.1,7.6,15.5,13.2,15.5,13.2c0.3,0.9,1.2,1.5,2.1,1.5c0.1,0,0.3,0,0.4,0
			c1.1-0.2,1.9-1.1,1.9-2.2V40.7h0c0-0.2,0.1-0.4,0.1-0.8c2.2-0.3,3.8-2,3.8-4.1v-8.3C80,25.5,78.3,23.8,76.1,23.5z M4.4,37.4H4.1
			c-0.9,0-1.7-0.7-1.7-1.6V28c0-0.9,0.7-1.6,1.7-1.6h0.3V37.4z M23.7,63.2c-0.2,0.2-0.5,0.4-0.8,0.4h-5.2c-0.5,0-1-0.4-1.1-0.8
			l-2.4-18.2h7.5l2.3,17.8C24,62.7,23.9,63,23.7,63.2z M27.6,40.4c-0.3,1.1-1.3,1.8-2.5,1.8h-2.4h-9.9H9.4c-1.4,0-2.6-1.1-2.6-2.6
			v-1c0-0.2,0-0.3-0.1-0.5c0.1-0.1,0.1-0.3,0.1-0.5V25.1v-1c0-1.4,1.2-2.6,2.6-2.6h15.7c1.1,0,2.1,0.7,2.5,1.8
			c0,0.1,0.1,0.2,0.2,0.3c0,0,0,0,0,0v16.1c0,0,0,0.1,0,0.1C27.7,40.1,27.6,40.2,27.6,40.4z M73.7,40.3c0,0.1-0.1,0.3-0.1,0.4v20
			c-1-1.9-4.8-7.2-16.2-13.7c-11.1-6.4-22.8-7.3-27.3-7.4V24.2c4.5-0.1,16.1-1,27.3-7.4C68.8,10.2,72.6,4.9,73.6,3v20
			C73.8,30.6,73.9,39.1,73.7,40.3z M74,39.9C74,39.9,74,39.9,74,39.9C74,39.9,74,39.9,74,39.9L74,39.9z M77.5,35.9
			c0,0.7-0.5,1.4-1.3,1.6c0-2.2,0-5.8-0.1-11.6c0.8,0.2,1.4,0.9,1.4,1.6V35.9z M102.8,31.8h-9.3c-0.7,0-1.2,0.5-1.2,1.2
			c0,0.7,0.5,1.2,1.2,1.2h9.3c0.7,0,1.2-0.5,1.2-1.2C104,32.3,103.5,31.8,102.8,31.8z M88.4,47c-0.5-0.5-1.2-0.5-1.7,0
			s-0.5,1.2,0,1.7l6.6,6.4c0.2,0.2,0.6,0.4,0.9,0.4c0.3,0,0.6-0.1,0.9-0.4c0.5-0.5,0.5-1.2,0-1.7L88.4,47z M87.6,19.6
			c0.3,0,0.6-0.1,0.9-0.4l6.6-6.4c0.5-0.5,0.5-1.2,0-1.7c-0.5-0.5-1.2-0.5-1.7,0l-6.6,6.4c-0.5,0.5-0.5,1.2,0,1.7
			C86.9,19.4,87.2,19.6,87.6,19.6z"/>
	</g>
</g>
</svg>
