<?xml version="1.0" encoding="utf-8"?>
<!-- Generator: Adobe Illustrator 19.0.0, SVG Export Plug-In . SVG Version: 6.00 Build 0)  -->
<svg version="1.1" id="Shape_53_1_" xmlns="http://www.w3.org/2000/svg" xmlns:xlink="http://www.w3.org/1999/xlink" x="0px"
	 y="0px" viewBox="0 0 69 69" style="enable-background:new 0 0 69 69;" xml:space="preserve">
<style type="text/css">
	.st0{fill:#20AA97;}
</style>
<g id="Shape_53">
	<g>
		<path class="st0" d="M49.8,37c-1.4-1.3-3.2-2.1-5-2.1c-2.2,0-4.1,0.9-5.4,2.5C39,37.7,38.5,38,38,38c-0.5,0-1-0.2-1.4-0.5l-7-6.8
			c-0.2-0.2-0.6-0.7-0.5-1.4c0-0.1,0-0.1,0-0.2c0-0.5,0.3-1,0.7-1.3c1.6-1.3,2.5-3.1,2.5-4.7c0.2-1.9-0.5-3.9-2-5.3l-6.6-6.2
			c-1.3-1.2-3-1.9-4.9-1.9c-2.6,0-4.9,1.4-6.2,3.6l0,0c-0.1,0.1-0.2,0.2-0.2,0.3c-3.7,7.3-2.2,16.1,3.8,21.9l15.5,15.1
			c3.7,3.6,8.7,5.6,13.9,5.6c3.1,0,6.1-0.7,8.6-2c0.1-0.1,0.2-0.1,0.3-0.2l0,0c2-1,3.2-2.7,3.6-4.9c0.4-2.2-0.3-4.3-1.8-5.8L49.8,37
			z M55.6,48.7c-0.2,1.5-1,2.5-2.4,3.2c-0.1,0.1-0.2,0.1-0.3,0.2l0,0c-2.1,1.1-4.6,1.6-7.3,1.6c-4.6,0-8.9-1.7-12.1-4.9L18,33.8
			c-5.2-5-6.5-12.6-3.4-18.8c0.1-0.1,0.2-0.2,0.2-0.3c0.8-1.5,2.2-2.4,4-2.4c1.1,0,2.3,0.4,3,1.2l6.6,6.2c0.9,0.9,1.3,2.1,1.2,3.4
			c0,0.9-0.6,2.1-1.6,2.9c-1,0.8-1.6,2-1.7,3.2c-0.2,1.2,0.3,2.5,1.3,3.4l7,6.8c0.9,0.9,2.1,1.3,3.3,1.2c1.3-0.1,2.5-0.7,3.3-1.6
			c0.8-1,2-1.5,3.4-1.5c1.1,0,2.3,0.5,3.2,1.3l6.6,6.4c0,0,0,0,0,0C55.5,46,55.9,47.3,55.6,48.7z M44.6,4.4l3.7-2
			c0.6-0.3,0.8-1.1,0.5-1.7c-0.3-0.6-1.1-0.8-1.7-0.5l-6.6,3.5c-0.6,0.3-0.8,1.1-0.5,1.7l3.6,6.4c0.2,0.4,0.7,0.6,1.1,0.6
			c0.2,0,0.4,0,0.6-0.2c0.6-0.3,0.8-1.1,0.5-1.7l-2.2-4c12.8,3.2,21.9,13.8,22.8,26.7c0,0.7,0.6,1.2,1.3,1.2c0,0,0.1,0,0.1,0
			c0.7,0,1.2-0.6,1.2-1.3C68,19.4,58.2,7.9,44.6,4.4z M25.4,57.2c-0.3-0.6-1.1-0.8-1.7-0.5c-0.6,0.3-0.8,1.1-0.5,1.7l2.2,4
			C12.6,59.2,3.5,48.5,2.6,35.7c0-0.7-0.7-1.2-1.4-1.2c-0.7,0-1.2,0.6-1.2,1.3c1,13.8,10.7,25.3,24.4,28.8l-3.7,2
			c-0.6,0.3-0.8,1.1-0.5,1.7c0.2,0.4,0.7,0.6,1.1,0.6c0.2,0,0.4-0.1,0.6-0.2l6.6-3.5c0.6-0.3,0.8-1.1,0.5-1.7L25.4,57.2z M41.8,19.5
			v1.1c-1.7,0.2-2.7,1.3-2.7,2.5c0,3.1,4.6,2.2,4.6,3.3c0,0.4-0.4,0.7-1.2,0.7c-0.7,0-1.4-0.2-1.9-0.5c-0.4-0.3-1-0.1-1.3,0.3l0,0
			c-0.3,0.4-0.2,1.1,0.3,1.3c0.6,0.3,1.3,0.5,2.1,0.6v1.1h1.4v-1.1c1.8-0.2,2.7-1.2,2.7-2.6c0-3-4.6-2.2-4.6-3.2
			c0-0.3,0.3-0.6,0.9-0.6c0.6,0,1.2,0.1,1.7,0.4c0.4,0.2,0.9,0.1,1.2-0.2c0.4-0.4,0.2-1.1-0.3-1.4c-0.5-0.2-1-0.4-1.6-0.5v-1.1H41.8
			z"/>
	</g>
</g>
</svg>
