<?xml version="1.0" encoding="utf-8"?>
<!-- Generator: Adobe Illustrator 19.0.0, SVG Export Plug-In . SVG Version: 6.00 Build 0)  -->
<svg version="1.1" id="Shape_49_1_" xmlns="http://www.w3.org/2000/svg" xmlns:xlink="http://www.w3.org/1999/xlink" x="0px"
	 y="0px" viewBox="0 0 76 69" style="enable-background:new 0 0 76 69;" xml:space="preserve">
<style type="text/css">
	.st0{fill:#20AA97;}
</style>
<g id="Shape_49">
	<g>
		<path class="st0" d="M74.2,55.9L63.8,45.7c-1.4-1.4-3.7-1.4-5.1,0l-2.2,2.2L52,43.4c4.2-4.6,6.7-10.7,6.7-17.4
			c0-4.2-1-8.3-2.9-11.8c0.3,0,0.5-0.1,0.7-0.3L64.8,6v4.7c0,0.7,0.6,1.3,1.3,1.3c0.7,0,1.3-0.6,1.3-1.3V2.7c0-0.7-0.6-1.3-1.3-1.3
			h-8c-0.7,0-1.3,0.6-1.3,1.3C56.7,3.4,57.3,4,58,4h5.1l-8.3,8.1c0,0,0,0.1-0.1,0.1C50.1,4.9,41.8,0,32.4,0C17.9,0,6,11.7,6,26
			c0,4.3,1.1,8.4,3,12l-7.7,7.5c-0.5,0.5-0.5,1.3,0,1.8c0.3,0.3,0.6,0.4,0.9,0.4c0.3,0,0.7-0.1,0.9-0.4l7.2-7
			c4.7,7.1,12.8,11.7,22,11.7c6.9,0,13.1-2.6,17.8-6.9l4.5,4.5L52.3,52c-0.7,0.7-1,1.6-1,2.5c0,0.9,0.4,1.8,1,2.5l10.4,10.3
			c1.2,1.1,2.7,1.7,4.2,1.7c1.5,0,3-0.6,4.2-1.7l3.1-3.1C76.6,61.9,76.6,58.2,74.2,55.9z M32.4,49.5C19.3,49.5,8.6,39,8.6,26
			c0-13,10.7-23.5,23.8-23.5S56.2,13.1,56.2,26C56.2,39,45.5,49.5,32.4,49.5z M72.4,62.4l-3.1,3.1c-1.3,1.3-3.4,1.3-4.8,0L54.1,55.2
			c-0.4-0.4-0.4-1,0-1.4l6.4-6.4c0.2-0.2,0.5-0.3,0.7-0.3c0.3,0,0.5,0.1,0.7,0.3l10.4,10.3C73.7,59,73.7,61.1,72.4,62.4z M47,20.1
			L38,29.3l-9.7-9.2c-0.5-0.5-1.3-0.5-1.8,0L16,30.2c-0.5,0.5-0.5,1.3,0,1.8c0.3,0.3,0.6,0.4,0.9,0.4c0.3,0,0.6-0.1,0.9-0.4l9.6-9.2
			l9.7,9.2c0.2,0.2,0.6,0.4,0.9,0.4c0.3,0,0.7-0.1,0.9-0.4l9.8-10.1c0.5-0.5,0.5-1.3,0-1.8C48.3,19.6,47.4,19.6,47,20.1z"/>
	</g>
</g>
</svg>
