<?xml version="1.0" encoding="utf-8"?>
<!-- Generator: Adobe Illustrator 19.0.0, SVG Export Plug-In . SVG Version: 6.00 Build 0)  -->
<svg version="1.1" id="Shape_58_copy_1_" xmlns="http://www.w3.org/2000/svg" xmlns:xlink="http://www.w3.org/1999/xlink" x="0px"
	 y="0px" viewBox="0 0 69 69" style="enable-background:new 0 0 69 69;" xml:space="preserve">
<style type="text/css">
	.st0{fill:#20AA97;}
</style>
<g id="Shape_58_copy">
	<g>
		<path class="st0" d="M23.5,22c-1,1.5-0.8,3.4,0.4,4.7l2.8,2.8c1.2,1.2,3.4,1.4,4.7,0.4c0.3,1.7,1.8,3,3.7,3H39
			c1.8,0,3.4-1.3,3.6-3c1.4,1,3.5,0.8,4.7-0.4l2.8-2.8c1.3-1.3,1.5-3.4,0.4-4.7c1.7-0.3,3-1.8,3-3.7v-3.9c0-1.8-1.3-3.4-3-3.6
			c1-1.5,0.9-3.5-0.4-4.7l-2.8-2.8C46,2.1,44,2,42.7,3c-0.3-1.7-1.9-3-3.7-3h-3.9c-1.8,0-3.4,1.3-3.6,3C30,2,28,2.2,26.7,3.5
			l-2.8,2.8c-1.3,1.3-1.5,3.4-0.4,4.7c-1.7,0.3-3,1.8-3,3.7v3.9C20.5,20.2,21.8,21.8,23.5,22z M23,14.5c0-0.6,0.4-1.1,1.1-1.2
			l1.8-0.3c0.4-0.1,0.8-0.4,0.9-0.8c0.2-0.4,0.1-0.8-0.1-1.2l-1.1-1.6c-0.3-0.4-0.3-1,0.2-1.5l2.8-2.7c0.5-0.4,1.1-0.5,1.7-0.1
			l1.5,1c0.4,0.2,0.8,0.3,1.2,0.1c0.4-0.2,0.7-0.5,0.8-0.9l0.3-1.9c0.1-0.6,0.6-1,1.2-1H39c0.6,0,1.2,0.4,1.2,1.1l0.3,1.8
			c0.1,0.4,0.4,0.8,0.8,0.9c0.4,0.2,0.9,0.1,1.2-0.1l1.6-1.1c0.4-0.3,1.1-0.3,1.5,0.2L48.4,8c0,0,0,0,0,0c0.4,0.4,0.5,1.1,0,1.6
			l-1,1.5c-0.2,0.4-0.3,0.8-0.1,1.2c0.2,0.4,0.5,0.7,0.9,0.7l1.9,0.3c0.6,0.1,1,0.6,1,1.2v3.9c0,0.6-0.4,1.1-1.1,1.2l-1.8,0.3
			c-0.4,0.1-0.8,0.4-0.9,0.8c-0.2,0.4-0.1,0.8,0.1,1.2l1.1,1.6c0.3,0.4,0.3,1-0.2,1.5l-2.8,2.8c-0.4,0.4-1,0.5-1.7,0l-1.5-1
			c-0.4-0.2-0.8-0.3-1.2-0.1c-0.4,0.2-0.7,0.5-0.8,0.9l-0.3,1.9c-0.1,0.6-0.6,1-1.2,1h-3.9c-0.6,0-1.2-0.4-1.2-1.1l-0.3-1.8
			c-0.1-0.4-0.4-0.8-0.8-0.9c-0.2-0.1-0.3-0.1-0.5-0.1c-0.3,0-0.5,0.1-0.7,0.2l-1.5,1.1c0,0-0.1,0.1-0.1,0.1
			c-0.2,0.2-1.1,0.2-1.5-0.2L25.7,25c-0.4-0.5-0.5-1.1-0.1-1.7l1-1.5c0.2-0.4,0.3-0.8,0.1-1.2c-0.2-0.4-0.5-0.7-0.9-0.7L24,19.6
			c-0.6-0.1-1-0.6-1-1.2V14.5z M37.6,23.9c4.1,0,7.5-3.4,7.5-7.5c0-4.1-3.4-7.5-7.5-7.5c-4.1,0-7.5,3.4-7.5,7.5
			C30.1,20.6,33.4,23.9,37.6,23.9z M37.6,11.5c2.8,0,5,2.2,5,5c0,2.7-2.2,5-5,5s-5-2.2-5-5C32.6,13.7,34.8,11.5,37.6,11.5z M66.9,35
			c-2.5-1.9-6.1-1.6-8.2,0.8L51,44.4c-0.2,0.2-0.3,0.6-0.3,0.9c-0.2,3.5-3.2,6.3-6.7,6.3h0h-8.4c-0.2,0-0.4-0.2-0.4-0.4
			c0-0.2,0.2-0.4,0.4-0.4h8.3c0,0,0.1,0,0.1,0c3.1,0,5.6-2.4,5.8-5.4l0-0.2c0-1.5-0.6-2.9-1.6-3.9c-1.1-1.1-2.5-1.6-4-1.6h0H30.3
			l-2.1-0.7c-6.1-2.1-13-0.6-17.6,4L0.4,52.9C0.1,53.1,0,53.5,0,53.8c0,0.3,0.1,0.7,0.4,0.9l14.4,14c0.2,0.2,0.6,0.4,0.9,0.4
			c0.3,0,0.6-0.1,0.9-0.4l3.7-3.6H43c3.5,0,6.8-1.5,9.1-4.1l15.5-17.6c0.1-0.1,0.1-0.1,0.1-0.2C69.7,40.7,69.4,37,66.9,35z
			 M65.7,41.6L50.2,59.2c-1.8,2.1-4.5,3.3-7.2,3.3H19.7c-0.3,0-0.7,0.1-0.9,0.4L15.7,66L3,53.8l9.4-9.3c3.9-3.9,9.8-5.2,15-3.4
			l2.3,0.8c0.1,0,0.3,0.1,0.4,0.1h14h0c0.8,0,1.6,0.3,2.2,0.9c0.6,0.6,0.9,1.4,0.9,2.3c-0.1,1.7-1.5,3.1-3.3,3.1c0,0,0,0-0.1,0h-8.3
			c-1.6,0-3,1.3-3,3c0,1.6,1.3,2.9,3,2.9h8.4h0c4.8,0,8.8-3.6,9.2-8.4l7.5-8.4c1.2-1.4,3.3-1.6,4.7-0.5
			C66.7,38.1,66.9,40.2,65.7,41.6z"/>
	</g>
</g>
</svg>
