<?xml version="1.0" encoding="utf-8"?>
<!-- Generator: Adobe Illustrator 19.0.0, SVG Export Plug-In . SVG Version: 6.00 Build 0)  -->
<svg version="1.1" id="Shape_46_1_" xmlns="http://www.w3.org/2000/svg" xmlns:xlink="http://www.w3.org/1999/xlink" x="0px"
	 y="0px" viewBox="0 0 71 69" style="enable-background:new 0 0 71 69;" xml:space="preserve">
<style type="text/css">
	.st0{fill:#20AA97;}
</style>
<g id="Shape_46">
	<g>
		<path class="st0" d="M66.6,26.8c0,0-0.1-0.1-0.2-0.1l-0.6-0.3c0.1-0.2,0.1-0.3,0.1-0.5C66,11.6,52.4,0,35.7,0
			C19,0,5.4,11.6,5.4,25.9c0,0.1,0,0.3,0.1,0.4l-0.9,0.4c-0.1,0-0.1,0.1-0.2,0.1c-2.7,1.8-4.4,4.8-4.4,8v7.4c0,5.3,4.3,9.6,9.6,9.6
			h4c2.3,0,4.1-1.8,4.1-4.1V29.3c0-2.3-1.8-4.1-4.1-4.1h-4c-0.5,0-1.1,0.1-1.6,0.2C8.3,12.7,20.6,2.6,35.7,2.6
			c15.1,0,27.5,10.2,27.7,22.9c-0.7-0.2-1.4-0.3-2-0.3h-4c-2.3,0-4.1,1.8-4.1,4.1v18.3c0,2.3,1.8,4.1,4.1,4.1h4L51,61.6
			c-0.7,0.7-1.6,1.1-2.5,1.1h-3.6c-0.6-2.2-2.6-3.8-4.9-3.8h-6.1c-2.8,0-5.1,2.3-5.1,5.1c0,2.8,2.3,5.1,5.1,5.1h6.1
			c2.4,0,4.4-1.6,4.9-3.8h3.6c1.5,0,3.1-0.6,4.3-1.8l13.4-12.7c0.1-0.1,0.2-0.3,0.3-0.4c2.8-1.7,4.6-4.7,4.6-8.2v-7.4
			C71,31.6,69.4,28.5,66.6,26.8z M13.1,27.8h0.5c0.9,0,1.6,0.7,1.6,1.6v18.3c0,0.9-0.7,1.6-1.6,1.6h-0.5V27.8z M9.6,27.8h1v21.4h-1
			c-3.9,0-7.1-3.2-7.1-7v-7.4c0-2.4,1.2-4.5,3.2-5.9l1.7-0.8C8.2,27.9,8.9,27.8,9.6,27.8z M39.9,66.5h-6.1c-1.4,0-2.6-1.1-2.6-2.6
			c0-1.4,1.1-2.6,2.6-2.6h6.1c1.4,0,2.6,1.1,2.6,2.6C42.4,65.3,41.3,66.5,39.9,66.5z M57.9,49.2h-0.5c-0.9,0-1.6-0.7-1.6-1.6V29.3
			c0-0.9,0.7-1.6,1.6-1.6h0.5V49.2z M68.5,42.2c0,3.9-3.2,7-7.1,7h-1V27.8h1c0.7,0,1.4,0.1,2.2,0.4l1.7,0.8c2,1.3,3.2,3.5,3.2,5.9
			V42.2z M38,51.4v-5.1c0-0.7-0.6-1.3-1.3-1.3c-0.7,0-1.3,0.6-1.3,1.3v5.1c0,0.7,0.6,1.3,1.3,1.3C37.4,52.6,38,52.1,38,51.4z
			 M45.9,55.5l3.6-3.6c0.5-0.5,0.5-1.3,0-1.8c-0.5-0.5-1.3-0.5-1.8,0l-3.6,3.6c-0.5,0.5-0.5,1.3,0,1.8c0.2,0.2,0.6,0.4,0.9,0.4
			C45.4,55.9,45.7,55.8,45.9,55.5z M29.4,53.7l-3.6-3.6c-0.5-0.5-1.3-0.5-1.8,0c-0.5,0.5-0.5,1.3,0,1.8l3.6,3.6
			c0.2,0.2,0.6,0.4,0.9,0.4c0.3,0,0.7-0.1,0.9-0.4C29.9,55,29.9,54.2,29.4,53.7z"/>
	</g>
</g>
</svg>
