<?xml version="1.0" encoding="utf-8"?>
<!-- Generator: Adobe Illustrator 19.0.0, SVG Export Plug-In . SVG Version: 6.00 Build 0)  -->
<svg version="1.1" id="Shape_56_1_" xmlns="http://www.w3.org/2000/svg" xmlns:xlink="http://www.w3.org/1999/xlink" x="0px"
	 y="0px" viewBox="0 0 63 69" style="enable-background:new 0 0 63 69;" xml:space="preserve">
<style type="text/css">
	.st0{fill:#20AA97;}
</style>
<g id="Shape_56">
	<g>
		<path class="st0" d="M34.4,66.2H2.9c-0.1,0-0.2-0.1-0.2-0.2l0-63c0-0.1,0.1-0.2,0.2-0.2h30V17c0,0.7,0.6,1.3,1.3,1.3h14.7
			c0,0,0,0,0.1,0v24.2c0,0.7,0.6,1.3,1.3,1.3c0.7,0,1.3-0.6,1.3-1.3V16.7c0-0.8-0.3-1.5-0.8-2.1L37,0.8C36.5,0.3,35.8,0,35,0H2.9
			c-0.7,0-1.4,0.3-2,0.9C0.3,1.4,0,2.2,0,2.9V66c0,1.5,1.3,2.9,2.9,2.9h31.5c0.7,0,1.3-0.6,1.3-1.3C35.7,66.8,35.1,66.2,34.4,66.2z
			 M35.6,3.1l12.5,12.6H35.6V3.1z M27.7,23.3c0.7,0,1.3-0.6,1.3-1.3c0-0.7-0.6-1.3-1.3-1.3h-8.6c-0.7,0-1.3,0.6-1.3,1.3
			c0,0.7,0.6,1.3,1.3,1.3H27.7z M35.8,28.9c0-0.7-0.6-1.3-1.3-1.3H12.7c-0.7,0-1.3,0.6-1.3,1.3c0,0.7,0.6,1.3,1.3,1.3h21.8
			C35.2,30.2,35.8,29.6,35.8,28.9z M35.6,35.9H16c-0.7,0-1.3,0.6-1.3,1.3s0.6,1.3,1.3,1.3h19.5c0.7,0,1.3-0.6,1.3-1.3
			S36.3,35.9,35.6,35.9z M10.3,46.2c0,0.7,0.6,1.3,1.3,1.3h14.1c0.7,0,1.3-0.6,1.3-1.3c0-0.7-0.6-1.3-1.3-1.3H11.6
			C10.9,44.8,10.3,45.4,10.3,46.2z M62,47.9C62,47.9,62,47.9,62,47.9l-3.4-3.5c-0.7-0.7-1.6-1.1-2.5-1.1c-0.9,0-1.7,0.3-2.3,1
			l-2.6,2.6c-0.2,0.1-0.4,0.2-0.6,0.3c-0.2,0.2-0.3,0.4-0.3,0.6L39.9,58.2c-0.2,0.3-0.5,0.6-0.6,1.1l-1.8,6.6
			c-0.1,0.2-0.1,0.5-0.1,0.8c0,1.3,1.2,2.5,2.6,2.5c0.3,0,0.5,0,0.7-0.1l6.5-1.9c0.3-0.1,0.7-0.2,1.1-0.6L62,52.6
			c0.6-0.6,0.9-1.3,1-2.1c0-0.1,0-0.1,0-0.2C63,49.3,62.7,48.5,62,47.9z M46.4,64.4C46.4,64.4,46.4,64.4,46.4,64.4l-6.3,1.8l1.8-6.3
			c0,0,0-0.1,0-0.1l9.7-9.8l4.5,4.5L46.4,64.4z M60.1,50.7L58,52.8l-4.5-4.5l2.1-2.1C55.8,46,56,46,56.1,46c0.2,0,0.4,0.1,0.6,0.3
			l3.4,3.5c0.1,0.1,0.2,0.2,0.2,0.5C60.3,50.5,60.2,50.6,60.1,50.7z"/>
	</g>
</g>
</svg>
