<?xml version="1.0" encoding="utf-8"?>
<!-- Generator: Adobe Illustrator 19.0.0, SVG Export Plug-In . SVG Version: 6.00 Build 0)  -->
<svg version="1.1" id="Shape_61_1_" xmlns="http://www.w3.org/2000/svg" xmlns:xlink="http://www.w3.org/1999/xlink" x="0px"
	 y="0px" viewBox="0 0 62 39" style="enable-background:new 0 0 62 39;" xml:space="preserve">
<style type="text/css">
	.st0{fill:#20AA97;}
</style>
<g id="Shape_61">
	<g>
		<path class="st0" d="M24.5,15.5C24.5,15.5,24.5,15.5,24.5,15.5c0.6,1.2,1.4,2.2,2.5,3.4c1.2,1.1,2.7,1.7,4.4,1.7h0.2
			c1.6,0,3.1-0.6,4.3-1.7c1.3-1.1,2.1-2.2,2.5-3.4c1.2-2.5,1.8-4.9,1.8-7.3l0-1.1c-0.2-3-2-5.3-5-6.4C34.1,0.3,32.8,0,31.5,0
			c-1.4,0-2.6,0.2-3.9,0.7c-3,1.1-4.7,3.3-5,6.4l0,1.1C22.7,10.7,23.4,13.1,24.5,15.5z M28.1,2.1c1.1-0.4,2.1-0.6,3.3-0.6
			c1.2,0,2.3,0.2,3.3,0.6c2.4,0.9,3.8,2.7,4,5.1v1c0,2.2-0.5,4.4-1.6,6.7c-0.4,1-1.1,1.9-2.2,2.9c-0.9,0.8-2.1,1.3-3.3,1.3h-0.2
			c-1.3,0-2.5-0.4-3.4-1.2c-1-1-1.7-2-2.2-3c-1-2.2-1.6-4.4-1.7-6.7l0-1C24.3,4.8,25.6,3,28.1,2.1z M45.3,14.9
			C45.3,14.9,45.3,14.9,45.3,14.9c0.4,0.8,0.9,1.5,1.7,2.3c0.8,0.8,1.9,1.1,3.1,1.1h0.1c1.1,0,2.2-0.4,3-1.1
			c0.9-0.8,1.4-1.5,1.7-2.3c0.8-1.6,1.2-3.3,1.2-4.9l0-0.7c-0.2-2.1-1.4-3.6-3.4-4.4c-0.8-0.3-1.7-0.5-2.6-0.5
			c-0.9,0-1.8,0.2-2.6,0.5c-2.1,0.8-3.3,2.3-3.4,4.4l0,0.7C44.1,11.7,44.5,13.3,45.3,14.9z M48,6.3c0.7-0.3,1.3-0.4,2.1-0.4
			c0.7,0,1.4,0.1,2.1,0.4c1.5,0.6,2.3,1.6,2.5,3.1V10c0,1.4-0.3,2.8-1.1,4.3c-0.2,0.6-0.7,1.2-1.3,1.8c-0.6,0.5-1.3,0.8-2,0.8h-0.1
			c-0.8,0-1.5-0.3-2.1-0.7c-0.6-0.6-1.1-1.2-1.4-1.9c-0.7-1.4-1-2.8-1.1-4.2l0-0.6C45.6,7.9,46.4,6.9,48,6.3z M60.5,22
			c-0.4-0.4-1-0.6-1.5-0.8l-3.6-1.3c-1.4-0.6-2.4-0.2-2.9,0.2c0,0,0,0-0.1,0.1l-0.1,0.1c-0.2,0.2-0.4,0.5-0.5,0.7
			c-0.1,0-0.1,0.1-0.1,0.1l-1.5,2.1c-0.2-0.3-0.5-0.7-0.7-1c-0.4-0.5-0.7-1-1.1-1.5c0,0,0,0,0,0c0-0.1-0.1-0.2-0.2-0.3
			c-0.3-0.3-0.7-0.7-1.2-0.8l-0.3-0.1c-0.1,0-0.2,0-0.3,0l-1.1,0.1c-0.1,0-0.1,0-0.2,0l-3.6,1.4c-0.6,0.2-1.2,0.5-1.6,0.9
			c-0.3,0.3-0.6,0.6-0.8,0.9c-1.4-0.4-2.6-0.2-3.5,0.5c0,0,0,0-0.1,0.1l-0.2,0.2c-0.3,0.3-0.6,0.7-0.8,1c0,0,0,0,0,0
			c-0.1,0-0.1,0.1-0.2,0.2l-2.6,3.6c-0.5-0.7-1-1.3-1.5-2c-0.5-0.8-1.1-1.5-1.7-2.3c0-0.1-0.1-0.2-0.3-0.4c-0.5-0.5-0.9-0.9-1.7-1.1
			L26,22.6c-0.1,0-0.2,0-0.3,0L24,22.8c0,0,0,0,0,0c-0.2-0.3-0.5-0.6-0.8-0.8c-0.5-0.4-1.1-0.7-1.6-0.8L18,19.7c-0.1,0-0.1,0-0.2,0
			l-1.1-0.1c-0.1,0-0.2,0-0.3,0l-0.3,0.1c-0.6,0.1-0.9,0.5-1.3,0.8c-0.1,0.1-0.2,0.2-0.2,0.3c0,0,0,0,0,0c-0.4,0.5-0.7,1-1.1,1.5
			c-0.2,0.3-0.5,0.7-0.7,1l-1.5-2.1c0-0.1-0.1-0.1-0.1-0.1c-0.1-0.2-0.3-0.4-0.5-0.7l-0.1-0.1c0,0,0,0-0.1-0.1
			C10,19.7,9,19.3,7.6,19.8l-3.6,1.3c-0.6,0.2-1.1,0.4-1.6,0.8c-1.4,1-1.6,2.3-1.5,3v2.6c0,0.5,0.1,0.9,0.3,1.3
			c0.5,1.3,1.8,1.9,2.8,1.9h9.7c0,0,0,0,0.1,0v3.8c0,0,0,0.1,0,0.1c0.1,0.6,0.2,1,0.3,1.5c0,0,0,0.1,0,0.1c0.8,2,2.6,2.7,4,2.7H45
			c1.4,0,3.2-0.8,3.9-2.7c0.3-0.6,0.4-1.2,0.4-1.9v-3.7h9.6c1,0,2.3-0.6,2.8-1.9c0.2-0.4,0.3-0.8,0.3-1.4v-2.6
			C62.1,24.2,61.9,22.9,60.5,22z M52.9,21.9L52.9,21.9C52.9,21.9,52.9,21.9,52.9,21.9C52.9,21.9,52.9,21.9,52.9,21.9z M13.9,29.3
			c0,0-0.1,0-0.1,0H4.1c-0.4,0-1.1-0.2-1.5-1.1c-0.1-0.2-0.1-0.4-0.1-0.7v-2.7c0-0.1,0-0.1,0-0.2c0-0.1,0-0.8,0.9-1.5
			c0.3-0.2,0.6-0.4,1.1-0.5l3.6-1.3c0.9-0.3,1.3-0.1,1.4,0l0.1,0.1c0.2,0.2,0.3,0.4,0.3,0.4c0,0.1,0.1,0.1,0.1,0.1
			c0.1,0.1,0.1,0.2,0.2,0.2l2,2.7c0.1,0.2,0.3,0.3,0.6,0.3c0.2,0,0.5-0.1,0.6-0.3l0.3-0.4c0.4-0.5,0.7-1,1.1-1.5
			c0.3-0.5,0.7-1,1-1.4c0.1-0.1,0.1-0.2,0.2-0.2c0.2-0.2,0.3-0.3,0.5-0.3l0.2,0l0.9,0.1l3.7,1.4c0.4,0.1,0.8,0.3,1.2,0.6
			c0.1,0.1,0.1,0.1,0.2,0.2l-4.3,1.6c-0.8,0.2-1.7,0.7-2.4,1.3C14.5,27.2,14.1,28.5,13.9,29.3z M47.9,30c0,0.1,0,0.2,0,0.3v4.2
			c0,0.6-0.1,0.9-0.3,1.3c-0.6,1.4-1.9,1.8-2.6,1.8H18.2c-0.4,0-1.9-0.1-2.6-1.7c-0.1-0.4-0.2-0.8-0.3-1.3l0-4.4
			c0-0.4,0.1-1.7,1.5-2.8c0.6-0.4,1.3-0.8,1.9-1l5.6-2.1l1.5-0.2l0.3,0.1c0.3,0.1,0.5,0.3,1,0.7c0,0.1,0.1,0.2,0.2,0.3
			c0.5,0.7,1.1,1.5,1.6,2.2c0.5,0.8,1.1,1.5,1.7,2.3l0.5,0.6c0.1,0.2,0.4,0.3,0.6,0.3c0.2,0,0.4-0.1,0.6-0.3l3-4.2
			c0.1-0.1,0.2-0.2,0.3-0.3c0.1-0.1,0.1-0.1,0.1-0.2c0-0.1,0.2-0.4,0.5-0.7l0.2-0.2C37,24,37.9,24,39,24.4l5.6,2
			c0.7,0.2,1.3,0.5,1.8,0.9c0,0,0,0,0,0C48,28.5,47.9,29.9,47.9,30z M60.5,24.8v2.7c0,0.3-0.1,0.5-0.2,0.8c-0.3,0.8-1.1,1-1.4,1
			h-9.6c-0.2-0.9-0.7-2.1-2.1-3.1c-0.6-0.5-1.4-0.9-2.2-1.1l-4.6-1.7c0.1-0.1,0.2-0.2,0.3-0.3c0.3-0.3,0.8-0.5,1.2-0.6l3.6-1.4
			l0.9-0.1l0.2,0c0.1,0,0.2,0.1,0.5,0.3c0,0.1,0.1,0.1,0.2,0.2c0.4,0.5,0.7,0.9,1,1.4c0.4,0.5,0.7,1,1.1,1.5l0.3,0.4
			c0.1,0.2,0.4,0.3,0.6,0.3c0.2,0,0.4-0.1,0.6-0.3l2-2.7c0.1-0.1,0.1-0.1,0.2-0.2c0,0,0.1-0.1,0.1-0.2c0-0.1,0.1-0.2,0.3-0.4
			l0.1-0.1c0.2-0.1,0.6-0.4,1.5,0l3.7,1.3c0.4,0.1,0.8,0.3,1.1,0.6c0.9,0.6,0.9,1.3,0.9,1.5C60.5,24.7,60.5,24.7,60.5,24.8z
			 M9.8,17.2c0.8,0.7,1.9,1.1,3,1.1h0.1c1.2,0,2.2-0.4,3.1-1.2c0.8-0.8,1.3-1.5,1.7-2.3c0.7-1.6,1.2-3.2,1.2-4.8c0,0,0,0,0,0l0-0.7
			c-0.2-2.1-1.3-3.6-3.4-4.4c-0.8-0.3-1.7-0.5-2.6-0.5c-0.9,0-1.8,0.2-2.6,0.5c-2,0.8-3.2,2.3-3.4,4.4V10c0,1.6,0.4,3.2,1.2,4.8
			C8.4,15.7,8.9,16.4,9.8,17.2z M10.9,6.3c0.6-0.3,1.4-0.4,2.1-0.4c0.8,0,1.4,0.1,2.1,0.4c1.5,0.6,2.3,1.6,2.5,3.1V10
			c-0.1,1.4-0.4,2.9-1.1,4.3c-0.3,0.6-0.8,1.2-1.4,1.8c-0.6,0.5-1.3,0.8-2.1,0.8h-0.1c-0.7,0-1.5-0.3-2-0.8
			c-0.7-0.6-1.1-1.2-1.4-1.8c-0.7-1.4-1-2.9-1-4.2l0-0.6C8.5,7.9,9.4,6.9,10.9,6.3z M21.7,32.2h-3.4c-0.4,0-0.7,0.3-0.7,0.7
			c0,0.4,0.3,0.7,0.7,0.7h3.4c0.4,0,0.7-0.3,0.7-0.7C22.4,32.5,22.1,32.2,21.7,32.2z M58.6,25.6h-2.4c-0.4,0-0.7,0.3-0.7,0.7
			c0,0.4,0.3,0.7,0.7,0.7h2.4c0.4,0,0.7-0.3,0.7-0.7C59.3,25.9,59,25.6,58.6,25.6z M6.9,25.6H4.5c-0.4,0-0.7,0.3-0.7,0.7
			c0,0.4,0.3,0.7,0.7,0.7h2.4c0.4,0,0.7-0.3,0.7-0.7C7.7,25.9,7.3,25.6,6.9,25.6z"/>
	</g>
</g>
</svg>
