<?xml version="1.0" encoding="utf-8"?>
<!-- Generator: Adobe Illustrator 19.0.0, SVG Export Plug-In . SVG Version: 6.00 Build 0)  -->
<svg version="1.1" id="Shape_59_1_" xmlns="http://www.w3.org/2000/svg" xmlns:xlink="http://www.w3.org/1999/xlink" x="0px"
	 y="0px" viewBox="0 0 52 49" style="enable-background:new 0 0 52 49;" xml:space="preserve">
<style type="text/css">
	.st0{fill:#20AA97;}
</style>
<g id="Shape_59">
	<g>
		<path class="st0" d="M41.1,14.5c-0.4,0.2-0.6,0.8-0.4,1.2c2.5,4.9,3,10.4,1.3,15.6c-1.7,5.2-5.3,9.4-10.2,11.9
			c-4.9,2.5-10.5,3-15.7,1.3c-5.2-1.7-9.5-5.3-12-10.1c-2.5-4.9-3-10.4-1.3-15.6C4.5,13.6,8.1,9.4,13,6.9C20.1,3.3,28.8,4.1,35.1,9
			c0.4,0.3,1,0.2,1.3-0.2c0.3-0.4,0.2-1-0.2-1.3c-6.9-5.4-16.3-6.3-24.1-2.3C6.8,8,2.9,12.6,1.1,18.3C-0.7,24-0.2,30,2.5,35.3
			c1,2,2.4,3.8,3.9,5.4c-0.1,0.1-0.2,0.1-0.2,0.3L2,47.6c-0.3,0.4-0.1,1,0.3,1.2C2.4,49,2.6,49,2.8,49c0.3,0,0.6-0.1,0.8-0.4
			l4.2-6.6c0,0,0,0,0,0c2.3,2,4.9,3.5,7.8,4.4c2.3,0.7,4.6,1.1,6.9,1.1c3.5,0,7-0.8,10.2-2.5c1.3-0.7,2.5-1.5,3.7-2.3l3.8,6
			c0.2,0.3,0.5,0.4,0.8,0.4c0.2,0,0.3,0,0.5-0.1c0.4-0.3,0.6-0.8,0.3-1.2l-3.9-6.2c2.8-2.6,4.8-5.8,6-9.5c1.8-5.7,1.3-11.7-1.4-17
			C42,14.5,41.5,14.3,41.1,14.5z M31.9,12.9c0.3-0.4,0.2-1-0.2-1.3c-4.7-3.2-10.9-3.8-16.1-1.4c-4,1.8-7,5.1-8.5,9.2
			C5.5,23.6,5.7,28,7.5,31.9c2.8,6,8.7,9.5,14.9,9.5c2.3,0,4.6-0.5,6.8-1.5c8.2-3.8,11.8-13.5,8-21.6c-0.2-0.5-0.7-0.7-1.2-0.4
			c-0.5,0.2-0.7,0.7-0.4,1.2c3.4,7.3,0.2,15.9-7.1,19.2c-7.3,3.3-16,0.2-19.3-7.1c-1.6-3.5-1.8-7.4-0.4-11.1c1.3-3.6,4-6.5,7.6-8.1
			c4.6-2.1,10.1-1.7,14.3,1.2C31,13.4,31.6,13.3,31.9,12.9z M27.7,17c0.2-0.4,0.1-1-0.4-1.2c-2.4-1.3-5.2-1.6-7.8-0.8
			c-2.7,0.8-5,2.6-6.4,5c-1.4,2.5-1.7,5.3-0.9,8c0.8,2.7,2.6,5,5,6.3c1.6,0.9,3.4,1.3,5.1,1.3c1,0,2-0.1,2.9-0.4
			c2.7-0.8,5-2.6,6.4-5c1.4-2.5,1.7-5.3,0.9-8c-0.1-0.5-0.6-0.8-1.1-0.6c-0.5,0.1-0.8,0.6-0.6,1.1c0.6,2.2,0.4,4.6-0.8,6.6
			c-1.1,2-3,3.5-5.3,4.2c-2.3,0.6-4.6,0.4-6.7-0.8c-2-1.1-3.5-3-4.2-5.2c-0.6-2.2-0.4-4.6,0.8-6.6c1.1-2,3-3.5,5.3-4.2
			c2.2-0.6,4.5-0.4,6.5,0.7C26.9,17.6,27.5,17.4,27.7,17z M20.2,22c0.8-0.6,1.9-0.8,2.9-0.6c0.5,0.1,1-0.2,1.1-0.7
			c0.1-0.5-0.2-1-0.7-1.1c-1.5-0.3-3,0-4.2,0.9c-1.2,0.8-2.1,2.1-2.4,3.6c-0.6,3,1.5,6,4.5,6.5c0.3,0.1,0.7,0.1,1,0.1
			c1.1,0,2.2-0.3,3.2-1c1.2-0.8,2.1-2.1,2.4-3.6c0.1-0.5-0.2-1-0.7-1.1c-0.5-0.1-1,0.2-1.1,0.7c-0.2,1-0.8,1.9-1.6,2.4
			c-0.8,0.6-1.9,0.8-2.9,0.6c-2.1-0.4-3.4-2.4-3.1-4.4C18.8,23.4,19.4,22.5,20.2,22z M51.9,5.7c-0.2-0.7-0.8-1.2-1.5-1.2l-2.3-0.2
			L48.3,2c0.1-0.5-0.1-1-0.5-1.4C47.5,0.2,47,0,46.5,0c-0.4,0-0.7,0.1-1,0.3L41,3.6c-0.4,0.3-0.7,0.8-0.7,1.3l-0.4,4l-0.2,1
			c0,0,0,0,0,0.1L22.2,24.1c-0.4,0.3-0.4,0.9-0.1,1.3c0.2,0.2,0.4,0.3,0.7,0.3c0.2,0,0.4-0.1,0.6-0.2l17.4-14.2c0,0,0,0,0.1,0h0l1,0
			l4.1,0.4c0.1,0,0.1,0,0.2,0c0.5,0,0.9-0.2,1.2-0.5l4-3.7C51.9,7.1,52.1,6.4,51.9,5.7z M46.2,10L42,9.6c0,0-0.1,0-0.1,0h0
			c0,0,0,0,0,0l-0.3,0l0.1-0.3c0,0,0-0.1,0-0.1L42.1,5l4.5-3.2l-0.3,2.8c-0.1,0.7,0.4,1.3,1.1,1.3l2.9,0.3L46.2,10z"/>
	</g>
</g>
</svg>
